# xmcd
#
# Track frame offsets: 
#        150
#        18732
#        37167
#        52785
#        76190
#        94112
#        118922
#        139617
#        157655
#        179792
#
# Disc length: 2681 seconds
#
# Revision: 15
# Processed by: cddbd v1.5.2PL0 Copyright (c) Steve Scherf et al.
# Submitted via: ExactAudioCopyFreeDBPlugin 1.0
#
DISCID=7d0a770a
DTITLE=Zucchero - Spirito Divino
DYEAR=1995
DGENRE=Blues
TTITLE0=Voodoo Voodoo
TTITLE1=Datemi Una Pompa
TTITLE2=O.L.S.M.M.
TTITLE3=Pane E Sale
TTITLE4=X Colpa Di Chi?
TTITLE5=Il Volo
TTITLE6=Senza Rimorso
TTITLE7=Papà Perchè
TTITLE8=Così Celeste
TTITLE9=Alleluja
EXTD=YEAR: 1995
EXTT0=
EXTT1=
EXTT2=
EXTT3=
EXTT4=
EXTT5=
EXTT6=
EXTT7=
EXTT8=
EXTT9=
PLAYORDER=
